<?xml version="1.0" encoding="UTF-8"?>
<svg data-name="Layer 1" viewBox="0 0 314.67 160" xmlns="http://www.w3.org/2000/svg">
 <defs>
  <style>.cls-1{fill:url(#linear-gradient);}.cls-2{fill:url(#linear-gradient-2);}.cls-3{fill:#3bb0c3;}</style>
  <linearGradient id="linear-gradient" x1="48.87" x2="146.51" y1="142.12" y2="44.48" gradientUnits="userSpaceOnUse">
   <stop stop-color="#9e1f63" offset="0"/>
   <stop stop-color="#8c3a75" offset=".11"/>
   <stop stop-color="#6f6491" offset=".31"/>
   <stop stop-color="#5885a7" offset=".5"/>
   <stop stop-color="#489db6" offset=".68"/>
   <stop stop-color="#3eabc0" offset=".85"/>
   <stop stop-color="#3bb0c3" offset="1"/>
  </linearGradient>
  <linearGradient id="linear-gradient-2" x1="90.97" x2="175.12" y1="120.3" y2="36.15" gradientTransform="matrix(.99 -.13 .13 .99 -40.28 12.66)" gradientUnits="userSpaceOnUse">
   <stop stop-color="#9e1f63" offset="0"/>
   <stop stop-color="#86467a" offset=".15"/>
   <stop stop-color="#6c7093" offset=".34"/>
   <stop stop-color="#5791a6" offset=".52"/>
   <stop stop-color="#49a9b4" offset=".7"/>
   <stop stop-color="#40b7bc" offset=".86"/>
   <stop stop-color="#3dbcbf" offset="1"/>
  </linearGradient>
 </defs>
 <path class="cls-1" d="M66,138c-17,0-35-4.56-35-13,0-7.49,13.91-11.45,25.81-12.58a2,2,0,0,1,.38,4C43.48,117.7,35,121.87,35,125c0,3.76,11.79,9,31,9s31-5.24,31-9c0-2.09-4.2-5.26-13.42-7.27a2,2,0,0,1,.84-3.91C95.11,116.15,101,120.12,101,125,101,133.44,83,138,66,138Z"/>
 <path class="cls-2" d="M137.79,25.3A12.26,12.26,0,0,0,120.91,28L75.64,87.24a12,12,0,0,0-2.29,9.27,10.62,10.62,0,0,1-2.18,8.11l-6.14,8A5.18,5.18,0,0,0,66,120a5,5,0,0,0,3.55.87,5,5,0,0,0,3.31-1.92l6.59-8.62a9.8,9.8,0,0,1,6.88-3.82l.46,0a11.94,11.94,0,0,0,7.95-4.61l45.51-59.55A12,12,0,0,0,137.79,25.3ZM134.66,38,101.17,81.83a5,5,0,1,1-8-6.07l33.49-43.83a5,5,0,0,1,8,6.08Z"/>
 <path class="cls-3" d="M139.55,107h9.92l.77-3.86H138.13a2.83,2.83,0,0,0-2.78,2.28l-4,20h4.52l1.82-9.1h8.53l.77-3.85h-8.53Z"/>
 <polygon class="cls-3" points="148.25 125.5 162.74 125.5 163.51 121.66 153.54 121.66 154.69 115.91 163.27 115.91 164.04 112.05 155.46 112.05 156.46 107.03 166.33 107.03 167.1 103.17 152.71 103.17"/>
 <polygon class="cls-3" points="181.61 103.17 174.48 118.99 172.42 103.17 167.66 103.17 171.46 125.5 175.52 125.5 186.47 103.17"/>
 <polygon class="cls-3" points="199.07 115.91 199.84 112.05 191.26 112.05 192.26 107.03 202.13 107.03 202.9 103.17 188.51 103.17 184.05 125.5 198.54 125.5 199.31 121.66 189.34 121.66 190.49 115.91"/>
 <path class="cls-3" d="M213.42,103.17h-8L201,125.5h4.53l1.76-8.85H211a1.86,1.86,0,0,1,1.68.67,3.2,3.2,0,0,1,.18,2.31l-.34,1.7a14,14,0,0,0-.29,2.12,2.43,2.43,0,0,0,.55,1.89l.14.16h4.22l.2-1-.16-.19a1.63,1.63,0,0,1-.35-1,6,6,0,0,1,.14-1.69l.35-1.78a6.62,6.62,0,0,0-.09-3.47,3.33,3.33,0,0,0-1.34-1.66,7.22,7.22,0,0,0,2-1.51,6.64,6.64,0,0,0,1.56-3.21c.42-2.15.07-3.84-1.05-5A6.62,6.62,0,0,0,213.42,103.17ZM209.2,107h3.55a2.49,2.49,0,0,1,2.05.64,2.8,2.8,0,0,1,.18,2.2,3.47,3.47,0,0,1-1.23,2.2,4.18,4.18,0,0,1-2.58.73H208Z"/>
 <polygon class="cls-3" points="240.37 103.17 232.07 118.61 229.96 103.17 224.57 103.17 220.11 125.5 224.63 125.5 226.16 117.81 227.13 111.82 229.21 125.5 232.28 125.5 239.73 112.03 238.39 117.64 236.82 125.5 241.34 125.5 245.81 103.17"/>
 <path class="cls-3" d="M255.69,103.17,243.6,125.5h4.69l2.64-5.1h6.69l.58,5.1h4.58l-3-22.33Zm1.49,13.38h-4.26l3.49-6.72Z"/>
 <path class="cls-3" d="m282.65 105.18a6.43 6.43 0 0 0-5.11-2h-8.27l-4.46 22.33h4.52l1.61-8.09h3.95a9.31 9.31 0 0 0 5.89-1.79 8.52 8.52 0 0 0 3-5.23 5.83 5.83 0 0 0-1.13-5.22zm-7.19 8.38h-3.75l1.29-6.56h4a2.29 2.29 0 0 1 2.07 0.79 3.28 3.28 0 0 1 0.23 2.4 4.35 4.35 0 0 1-1.32 2.41 3.49 3.49 0 0 1-2.52 0.96z"/>
</svg>
