<?xml version="1.0" encoding="UTF-8"?>
<!DOCTYPE svg  PUBLIC '-//W3C//DTD SVG 1.1//EN'  'http://www.w3.org/Graphics/SVG/1.1/DTD/svg11.dtd'>
<svg enable-background="new 0 0 61.132 61.132" version="1.1" viewBox="0 0 61.132 61.132" xml:space="preserve" xmlns="http://www.w3.org/2000/svg">
<path d="m27.482 34.031v12.317h-6.92c-1.703 0-3.084 1.381-3.084 3.084s1.381 3.084 3.084 3.084h6.92v5.531c0 1.703 1.381 3.084 3.084 3.084s3.084-1.381 3.084-3.084v-5.531h6.92c1.703 0 3.084-1.381 3.084-3.084s-1.381-3.084-3.084-3.084h-6.92v-12.317c7.993-1.458 14.072-8.467 14.072-16.874 1e-3 -9.46-7.696-17.157-17.156-17.157s-17.157 7.697-17.157 17.157c0 8.407 6.08 15.416 14.073 16.874zm3.084-27.862c6.059 0 10.988 4.929 10.988 10.988s-4.929 10.988-10.988 10.988-10.988-4.929-10.988-10.988 4.929-10.988 10.988-10.988z"/>
</svg>
