<?xml version="1.0" encoding="UTF-8"?>
<svg data-name="Layer 1" viewBox="0 0 360 160" xmlns="http://www.w3.org/2000/svg">
 <defs>
  <style>.cls-1{fill:url(#linear-gradient);}.cls-2{fill:url(#linear-gradient-2);}.cls-3{fill:#3bb0c3;}.cls-4{fill:#9e1f63;}</style>
  <linearGradient id="linear-gradient" x1="48.87" x2="146.51" y1="132.12" y2="34.48" gradientUnits="userSpaceOnUse">
   <stop stop-color="#9e1f63" offset="0"/>
   <stop stop-color="#8c3a75" offset=".11"/>
   <stop stop-color="#6f6491" offset=".31"/>
   <stop stop-color="#5885a7" offset=".5"/>
   <stop stop-color="#489db6" offset=".68"/>
   <stop stop-color="#3eabc0" offset=".85"/>
   <stop stop-color="#3bb0c3" offset="1"/>
  </linearGradient>
  <linearGradient id="linear-gradient-2" x1="66.45" x2="150.6" y1="108.67" y2="24.52" gradientTransform="matrix(.99 -.13 .13 .99 -14.44 10.94)" gradientUnits="userSpaceOnUse">
   <stop stop-color="#9e1f63" offset="0"/>
   <stop stop-color="#86467a" offset=".15"/>
   <stop stop-color="#6c7093" offset=".34"/>
   <stop stop-color="#5791a6" offset=".52"/>
   <stop stop-color="#49a9b4" offset=".7"/>
   <stop stop-color="#40b7bc" offset=".86"/>
   <stop stop-color="#3dbcbf" offset="1"/>
  </linearGradient>
 </defs>
 <path class="cls-1" d="M66,128c-17,0-35-4.56-35-13,0-7.49,13.91-11.45,25.81-12.58a2,2,0,0,1,.38,4C43.48,107.7,35,111.87,35,115c0,3.76,11.79,9,31,9s31-5.24,31-9c0-2.09-4.2-5.26-13.42-7.27a2,2,0,0,1,.84-3.91C95.11,106.15,101,110.12,101,115,101,123.44,83,128,66,128Z"/>
 <path class="cls-2" d="M137.79,15.3A12.26,12.26,0,0,0,120.91,18L75.64,77.24a12,12,0,0,0-2.29,9.27,10.62,10.62,0,0,1-2.18,8.11l-6.14,8A5.18,5.18,0,0,0,66,110a5,5,0,0,0,3.55.87,5,5,0,0,0,3.31-1.92l6.59-8.62a9.8,9.8,0,0,1,6.88-3.82l.46,0a11.94,11.94,0,0,0,7.95-4.61l45.51-59.55A12,12,0,0,0,137.79,15.3ZM134.66,28,101.17,71.83a5,5,0,1,1-8-6.07l33.49-43.83a5,5,0,0,1,8,6.08Z"/>
 <path class="cls-3" d="M139.55,97h9.92l.77-3.86H138.13a2.83,2.83,0,0,0-2.78,2.28l-4,20h4.52l1.82-9.1h8.53l.77-3.85h-8.53Z"/>
 <polygon class="cls-3" points="148.25 115.5 162.74 115.5 163.51 111.66 153.54 111.66 154.69 105.91 163.27 105.91 164.04 102.05 155.46 102.05 156.46 97.03 166.33 97.03 167.1 93.17 152.71 93.17"/>
 <polygon class="cls-3" points="181.61 93.17 174.48 108.99 172.42 93.17 167.66 93.17 171.46 115.5 175.52 115.5 186.47 93.17"/>
 <polygon class="cls-3" points="199.07 105.91 199.84 102.05 191.26 102.05 192.26 97.03 202.13 97.03 202.9 93.17 188.51 93.17 184.05 115.5 198.54 115.5 199.31 111.66 189.34 111.66 190.49 105.91"/>
 <path class="cls-3" d="M213.42,93.17h-8L201,115.5h4.53l1.76-8.85H211a1.86,1.86,0,0,1,1.68.67,3.2,3.2,0,0,1,.18,2.31l-.34,1.7a14,14,0,0,0-.29,2.12,2.43,2.43,0,0,0,.55,1.89l.14.16h4.22l.2-1-.16-.19a1.63,1.63,0,0,1-.35-1,6,6,0,0,1,.14-1.69l.35-1.78a6.62,6.62,0,0,0-.09-3.47,3.33,3.33,0,0,0-1.34-1.66,7.22,7.22,0,0,0,2-1.51,6.64,6.64,0,0,0,1.56-3.21c.42-2.15.07-3.84-1.05-5A6.62,6.62,0,0,0,213.42,93.17ZM209.2,97h3.55a2.49,2.49,0,0,1,2.05.64,2.8,2.8,0,0,1,.18,2.2,3.47,3.47,0,0,1-1.23,2.2,4.18,4.18,0,0,1-2.58.73H208Z"/>
 <polygon class="cls-3" points="240.37 93.17 232.07 108.61 229.96 93.17 224.57 93.17 220.11 115.5 224.63 115.5 226.16 107.81 227.13 101.82 229.21 115.5 232.28 115.5 239.73 102.03 238.39 107.64 236.82 115.5 241.34 115.5 245.81 93.17"/>
 <path class="cls-3" d="M255.69,93.17,243.6,115.5h4.69l2.64-5.1h6.69l.58,5.1h4.58l-3-22.33Zm1.49,13.38h-4.26l3.49-6.72Z"/>
 <path class="cls-3" d="m282.65 95.18a6.43 6.43 0 0 0-5.11-2h-8.27l-4.46 22.33h4.52l1.61-8.09h3.95a9.31 9.31 0 0 0 5.89-1.79 8.52 8.52 0 0 0 3-5.23 5.83 5.83 0 0 0-1.13-5.22zm-7.19 8.38h-3.75l1.29-6.56h4a2.29 2.29 0 0 1 2.07 0.79 3.28 3.28 0 0 1 0.23 2.4 4.35 4.35 0 0 1-1.32 2.41 3.49 3.49 0 0 1-2.52 0.96z"/>
 <path class="cls-4" d="m144.3 142h-1.13l2.83-14.22h1.14z"/>
 <path class="cls-4" d="m157.85 142h-1.13l-5-12.21-2.49 12.21h-1.14l2.85-14.22h1.13l5 12.19 2.44-12.19h1.13z"/>
 <path class="cls-4" d="M170.26,135.34h-6.4L162.53,142H161.4l2.85-14.22h8.45l-.19,1h-7.35l-1.1,5.55h6.41Z"/>
 <path class="cls-4" d="M181.08,135.12h-6.35L173.55,141h7.28l-.2,1h-8.4l2.85-14.22h8.35l-.2,1H176l-1.06,5.34h6.35Z"/>
 <path class="cls-4" d="M193.12,137.64a7.15,7.15,0,0,1-2,3.41,5,5,0,0,1-3.42,1.16,3.84,3.84,0,0,1-3.34-1.76,5.55,5.55,0,0,1-.66-4.44l.46-2.32a9,9,0,0,1,2.08-4.55,5,5,0,0,1,3.75-1.56,4.25,4.25,0,0,1,3.23,1.24,4.1,4.1,0,0,1,1,3.44h-1.15a3.54,3.54,0,0,0-.66-2.73,3.16,3.16,0,0,0-2.54-1A3.72,3.72,0,0,0,187,130a7.7,7.7,0,0,0-1.69,3.69l-.47,2.34a5.24,5.24,0,0,0,.36,3.83,2.92,2.92,0,0,0,2.67,1.38,3.76,3.76,0,0,0,2.55-.86,5.73,5.73,0,0,0,1.56-2.72Z"/>
 <path class="cls-4" d="M206.28,128.78H201.8L199.17,142H198l2.63-13.22h-4.45l.19-1h10.06Z"/>
 <path class="cls-4" d="m207.34 142h-1.13l2.84-14.22h1.13z"/>
 <path class="cls-4" d="M222,136.1a8.84,8.84,0,0,1-2.14,4.57,5.33,5.33,0,0,1-3.95,1.54,4,4,0,0,1-3.49-1.74,5.5,5.5,0,0,1-.68-4.46l.46-2.32a9,9,0,0,1,2.1-4.57,5.16,5.16,0,0,1,3.88-1.54,4.15,4.15,0,0,1,3.56,1.74,5.5,5.5,0,0,1,.72,4.46Zm-.65-2.34a5,5,0,0,0-.43-3.81A3.32,3.32,0,0,0,218,128.6a3.85,3.85,0,0,0-3,1.36,7.56,7.56,0,0,0-1.68,3.71l-.47,2.34a5,5,0,0,0,.38,3.83,3.17,3.17,0,0,0,2.86,1.35,4,4,0,0,0,3-1.36,7.67,7.67,0,0,0,1.73-3.73Z"/>
 <path class="cls-4" d="m233.51 142h-1.13l-5-12.21-2.49 12.21h-1.13l2.84-14.22h1.13l5 12.19 2.44-12.19h1.14z"/>
 <path class="cls-4" d="M253.19,128.78h-4.47L246.08,142H245l2.64-13.22h-4.46l.2-1h10.06Z"/>
 <path class="cls-4" d="M255.29,135.57,254,142h-1.13l2.84-14.21h4.5a4.1,4.1,0,0,1,3,1,3.12,3.12,0,0,1,.6,2.93,4.54,4.54,0,0,1-1,2.09,4.39,4.39,0,0,1-2,1.24v0a2.26,2.26,0,0,1,1.48,1.2,3.44,3.44,0,0,1,.13,2.1l-.26,1.33a4.26,4.26,0,0,0-.11,1.22,1.56,1.56,0,0,0,.32.84l-.05.23h-1.15a1.68,1.68,0,0,1-.28-1,6.21,6.21,0,0,1,.13-1.32l.27-1.3a2.49,2.49,0,0,0-.32-2.12,2.52,2.52,0,0,0-2-.71Zm.2-1h3.23a4.28,4.28,0,0,0,2.69-.78,3.36,3.36,0,0,0,1.28-2.09,2.46,2.46,0,0,0-.33-2.22,3.07,3.07,0,0,0-2.34-.7h-3.37Z"/>
 <path class="cls-4" d="m273.18 138h-6l-2.18 4h-1.16l7.87-14.22h1l2.21 14.22h-1.17zm-5.45-1h5.27l-1-7.68z"/>
 <path class="cls-4" d="M287,137.64a7.08,7.08,0,0,1-2,3.41,5,5,0,0,1-3.41,1.16,3.85,3.85,0,0,1-3.35-1.76,5.63,5.63,0,0,1-.66-4.44l.46-2.32a9.1,9.1,0,0,1,2.08-4.55,5,5,0,0,1,3.75-1.56,4.27,4.27,0,0,1,3.24,1.24,4.1,4.1,0,0,1,.95,3.44H287a3.62,3.62,0,0,0-.66-2.73,3.17,3.17,0,0,0-2.54-1,3.69,3.69,0,0,0-2.85,1.41,7.7,7.7,0,0,0-1.69,3.69l-.47,2.34a5.24,5.24,0,0,0,.35,3.83,2.92,2.92,0,0,0,2.68,1.38,3.72,3.72,0,0,0,2.54-.86,5.82,5.82,0,0,0,1.57-2.72Z"/>
 <path class="cls-4" d="m293 135.25h-1.76l-1.33 6.75h-1.14l2.84-14.22h1.14l-1.29 6.44h1.82l6-6.44h1.47l-6.75 7.05 4.08 7.17h-1.28z"/>
 <path class="cls-4" d="m301.34 142h-1.14l2.8-14.22h1.14z"/>
 <path class="cls-4" d="m314.88 142h-1.13l-5-12.21-2.49 12.21h-1.13l2.87-14.22h1.13l5 12.19 2.44-12.19h1.13z"/>
 <path class="cls-4" d="M328.26,140.31a5.23,5.23,0,0,1-1.87,1.3,7.15,7.15,0,0,1-3.09.6,4,4,0,0,1-3.42-1.69,5.41,5.41,0,0,1-.65-4.38l.51-2.61a8,8,0,0,1,2.26-4.41,5.67,5.67,0,0,1,4-1.54,3.9,3.9,0,0,1,3.07,1.15,3.94,3.94,0,0,1,.9,3h-1.12a3.52,3.52,0,0,0-.63-2.33,2.91,2.91,0,0,0-2.41-.87,4.35,4.35,0,0,0-3.09,1.39,6.72,6.72,0,0,0-1.82,3.55l-.53,2.63a5,5,0,0,0,.37,3.75,3,3,0,0,0,2.76,1.33,6,6,0,0,0,2.25-.4,4.09,4.09,0,0,0,1.47-.86l.74-3.71h-3.49l.2-1h4.61Z"/>
</svg>
