<?xml version="1.0" encoding="UTF-8"?>
<!DOCTYPE svg  PUBLIC '-//W3C//DTD SVG 1.1//EN'  'http://www.w3.org/Graphics/SVG/1.1/DTD/svg11.dtd'>
<svg enable-background="new 0 0 49.267 49.267" version="1.1" viewBox="0 0 49.267 49.267" xml:space="preserve" xmlns="http://www.w3.org/2000/svg">
<path d="m31.261 22.368 11.838-11.838v12.602c0 0.851 0.345 1.623 0.903 2.181s1.33 0.904 2.181 0.903c1.704 0 3.085-1.381 3.085-3.085v-20.047c0-1.702-1.382-3.085-3.085-3.084h-20.048c-1.704 0-3.085 1.381-3.085 3.085-1e-3 1.702 1.382 3.085 3.084 3.084h12.602l-11.837 11.837c-6.682-4.621-15.938-3.964-21.882 1.981-6.689 6.689-6.689 17.574 0 24.263s17.574 6.689 24.263 0c5.945-5.944 6.602-15.2 1.981-21.882zm-21.882 17.52c-4.284-4.284-4.284-11.255 0-15.54s11.255-4.284 15.54 0 4.284 11.255 0 15.54-11.256 4.285-15.54 0z"/>
</svg>
